<?xml version="1.0" encoding="utf-8"?>
<!-- Generator: Adobe Illustrator 22.1.0, SVG Export Plug-In . SVG Version: 6.00 Build 0)  -->
<svg version="1.1" id="Layer_1" xmlns="http://www.w3.org/2000/svg" xmlns:xlink="http://www.w3.org/1999/xlink" x="0px" y="0px"
	 viewBox="0 0 448 520" style="enable-background:new 0 0 448 520;" xml:space="preserve">
<g>
	<g>
		<g>
			<path d="M424,300.8c0-6.6,5.4-12,12-12l0,0c6.6,0,12,5.4,12,12l0,0c0,6.6-5.4,12-12,12l0,0C429.4,312.8,424,307.4,424,300.8z
				 M424,219.2c0-6.6,5.4-12,12-12l0,0c6.6,0,12,5.4,12,12l0,0c0,6.6-5.4,12-12,12l0,0C429.4,231.2,424,225.8,424,219.2z"/>
		</g>
		<g>
			<path d="M359.3,107.2c-5.7-3.3-7.7-10.6-4.4-16.4l0,0c3.3-5.7,10.6-7.7,16.4-4.4l0,0c5.7,3.3,7.7,10.7,4.4,16.4l0,0
				c-2.2,3.9-6.2,6-10.4,6l0,0C363.2,108.8,361.2,108.3,359.3,107.2z M288.6,66.4c-5.7-3.3-7.7-10.6-4.4-16.4l0,0
				c3.3-5.7,10.6-7.7,16.4-4.4l0,0c5.7,3.3,7.7,10.6,4.4,16.4l0,0c-2.2,3.8-6.2,6-10.4,6l0,0C292.6,68,290.5,67.5,288.6,66.4z"/>
		</g>
		<g>
			<path d="M72.2,102.8c-3.3-5.7-1.4-13.1,4.4-16.4l0,0c5.7-3.3,13.1-1.3,16.4,4.4l0,0c3.3,5.7,1.3,13.1-4.4,16.4l0,0
				c-1.9,1.1-4,1.6-6,1.6l0,0C78.5,108.8,74.5,106.6,72.2,102.8z M142.9,62c-3.3-5.7-1.3-13.1,4.4-16.4l0,0
				c5.7-3.3,13.1-1.4,16.4,4.4l0,0c3.3,5.7,1.4,13.1-4.4,16.4l0,0c-1.9,1.1-4,1.6-6,1.6l0,0C149.2,68,145.1,65.8,142.9,62z"/>
		</g>
		<g>
			<path d="M0,300.8c0-6.6,5.4-12,12-12l0,0c6.6,0,12,5.4,12,12l0,0c0,6.6-5.4,12-12,12l0,0C5.4,312.8,0,307.4,0,300.8z M0,219.2
				c0-6.6,5.4-12,12-12l0,0c6.6,0,12,5.4,12,12l0,0c0,6.6-5.4,12-12,12l0,0C5.4,231.2,0,225.8,0,219.2z"/>
		</g>
		<g>
			<path d="M0,382.4c0-6.6,5.4-12,12-12l0,0c6.6,0,12,5.4,12,12l0,0c0,6.6-5.4,12-12,12l0,0C5.4,394.4,0,389,0,382.4z"/>
		</g>
		<g>
			<path d="M0,137.6c0-6.6,5.4-12,12-12l0,0c6.6,0,12,5.4,12,12l0,0c0,6.6-5.4,12-12,12l0,0C5.4,149.6,0,144.2,0,137.6z"/>
		</g>
		<g>
			<path d="M147.3,474.4c-5.7-3.3-7.7-10.6-4.4-16.4l0,0c3.3-5.7,10.7-7.7,16.4-4.4l0,0c5.7,3.3,7.7,10.7,4.4,16.4l0,0
				c-2.2,3.8-6.3,6-10.4,6l0,0C151.2,476,149.2,475.5,147.3,474.4z M76.6,433.6c-5.7-3.3-7.7-10.7-4.4-16.4l0,0
				c3.3-5.7,10.6-7.7,16.4-4.4l0,0c5.7,3.3,7.7,10.7,4.4,16.4l0,0c-2.2,3.8-6.2,6-10.4,6l0,0C80.5,435.2,78.5,434.7,76.6,433.6z"/>
		</g>
		<g>
			<path d="M284.2,470c-3.3-5.7-1.4-13.1,4.4-16.4l0,0c5.7-3.3,13.1-1.3,16.4,4.4l0,0c3.3,5.7,1.3,13.1-4.4,16.4l0,0
				c-1.9,1.1-4,1.6-6,1.6l0,0C290.5,476,286.4,473.8,284.2,470z M354.9,429.2c-3.3-5.7-1.3-13.1,4.4-16.4l0,0
				c5.8-3.3,13.1-1.3,16.4,4.4l0,0c3.3,5.7,1.3,13.1-4.4,16.4l0,0c-1.9,1.1-4,1.6-6,1.6l0,0C361.1,435.2,357.1,433,354.9,429.2z"/>
		</g>
	</g>
	<g>
		<path d="M224,516.8c-6.6,0-12-5.4-12-12V15.2c0-6.6,5.4-12,12-12c6.6,0,12,5.4,12,12v489.6C236,511.4,230.6,516.8,224,516.8z"/>
	</g>
	<g>
		<path d="M224,272c-4.1,0-8.2-2.2-10.4-6c-3.3-5.7-1.3-13.1,4.4-16.4l212-122.4c5.7-3.3,13.1-1.3,16.4,4.4
			c3.3,5.7,1.3,13.1-4.4,16.4L230,270.4C228.1,271.5,226,272,224,272z"/>
	</g>
	<g>
		<path d="M436,394.4c-2,0-4.1-0.5-6-1.6L218,270.4c-5.7-3.3-7.7-10.7-4.4-16.4c3.3-5.7,10.7-7.7,16.4-4.4L442,372
			c5.7,3.3,7.7,10.7,4.4,16.4C444.2,392.2,440.1,394.4,436,394.4z"/>
	</g>
	<g>
		<path d="M224,394.4c-2,0-4.1-0.5-6-1.6l-106-61.2c-3.7-2.1-6-6.1-6-10.4V198.8c0-4.3,2.3-8.2,6-10.4l106-61.2
			c5.7-3.3,13.1-1.3,16.4,4.4s1.3,13.1-4.4,16.4l-100,57.7v108.5L230,372c5.7,3.3,7.7,10.7,4.4,16.4
			C232.2,392.2,228.1,394.4,224,394.4z"/>
	</g>
</g>
</svg>
